<?xml version="1.0" encoding="utf-8"?>
<!-- Generator: Adobe Illustrator 24.0.2, SVG Export Plug-In . SVG Version: 6.00 Build 0)  -->
<svg version="1.1" id="Capa_1" xmlns="http://www.w3.org/2000/svg" xmlns:xlink="http://www.w3.org/1999/xlink" x="0px" y="0px"
	 viewBox="0 0 472.61 472.61" style="enable-background:new 0 0 472.61 472.61;" xml:space="preserve">
<style type="text/css">
	.st0{fill:url(#SVGID_1_);}
	.st1{fill:url(#SVGID_2_);}
	.st2{fill:url(#SVGID_3_);}
	.st3{fill:url(#SVGID_4_);}
	.st4{fill:url(#SVGID_5_);}
	.st5{fill:url(#SVGID_6_);}
</style>
<g>
	<linearGradient id="SVGID_1_" gradientUnits="userSpaceOnUse" x1="28.2775" y1="316.0618" x2="398.6256" y2="316.0618">
		<stop  offset="0" style="stop-color:#3E66AF"/>
		<stop  offset="1" style="stop-color:#4BC5E4"/>
	</linearGradient>
	<path class="st0" d="M127.23,239.92H82.82c-2.24,0-4.05,1.81-4.05,4.05v144.19c0,2.24,1.81,4.05,4.05,4.05h44.41
		c2.24,0,4.05-1.81,4.05-4.05V243.97C131.28,241.73,129.47,239.92,127.23,239.92z M114.1,379.08H95.95c-2.24,0-4.05-1.81-4.05-4.05
		V257.1c0-2.24,1.81-4.05,4.05-4.05h18.16c2.24,0,4.05,1.81,4.05,4.05v117.93C118.15,377.26,116.34,379.08,114.1,379.08z"/>
	<linearGradient id="SVGID_2_" gradientUnits="userSpaceOnUse" x1="28.2775" y1="329.5618" x2="398.6256" y2="329.5618">
		<stop  offset="0" style="stop-color:#3E66AF"/>
		<stop  offset="1" style="stop-color:#4BC5E4"/>
	</linearGradient>
	<path class="st1" d="M215.19,266.92h-44.41c-2.24,0-4.05,1.81-4.05,4.05v117.19c0,2.24,1.81,4.05,4.05,4.05h44.41
		c2.24,0,4.05-1.81,4.05-4.05V270.97C219.24,268.73,217.43,266.92,215.19,266.92z M202.06,379.08h-18.16
		c-2.24,0-4.05-1.81-4.05-4.05V284.1c0-2.24,1.81-4.05,4.05-4.05h18.16c2.24,0,4.05,1.81,4.05,4.05v90.93
		C206.11,377.26,204.3,379.08,202.06,379.08z"/>
	<linearGradient id="SVGID_3_" gradientUnits="userSpaceOnUse" x1="28.2775" y1="299.0618" x2="398.6256" y2="299.0618">
		<stop  offset="0" style="stop-color:#3E66AF"/>
		<stop  offset="1" style="stop-color:#4BC5E4"/>
	</linearGradient>
	<path class="st2" d="M302.49,205.92h-44.41c-2.24,0-4.05,1.81-4.05,4.05v178.19c0,2.24,1.81,4.05,4.05,4.05h44.41
		c2.24,0,4.05-1.81,4.05-4.05V209.97C306.54,207.73,304.73,205.92,302.49,205.92z M289.36,379.08h-18.16
		c-2.24,0-4.05-1.81-4.05-4.05V223.1c0-2.24,1.81-4.05,4.05-4.05h18.16c2.24,0,4.05,1.81,4.05,4.05v151.93
		C293.42,377.26,291.6,379.08,289.36,379.08z"/>
	<linearGradient id="SVGID_4_" gradientUnits="userSpaceOnUse" x1="28.2775" y1="319.5618" x2="398.6256" y2="319.5618">
		<stop  offset="0" style="stop-color:#3E66AF"/>
		<stop  offset="1" style="stop-color:#4BC5E4"/>
	</linearGradient>
	<path class="st3" d="M389.14,246.92h-44.41c-2.24,0-4.05,1.81-4.05,4.05v137.19c0,2.24,1.81,4.05,4.05,4.05h44.41
		c2.24,0,4.05-1.81,4.05-4.05V250.97C393.19,248.73,391.38,246.92,389.14,246.92z M376.01,379.08h-18.16
		c-2.24,0-4.05-1.81-4.05-4.05V264.1c0-2.24,1.81-4.05,4.05-4.05h18.16c2.24,0,4.05,1.81,4.05,4.05v110.93
		C380.06,377.26,378.25,379.08,376.01,379.08z"/>
	<linearGradient id="SVGID_5_" gradientUnits="userSpaceOnUse" x1="28.2775" y1="146.7076" x2="398.6256" y2="146.7076">
		<stop  offset="0" style="stop-color:#3E66AF"/>
		<stop  offset="1" style="stop-color:#4BC5E4"/>
	</linearGradient>
	<path class="st4" d="M105.68,163.12c8.75,0,16.77-4.34,21.74-10.97l61.53,30.68c-0.62,2.92-0.75,6.03-0.23,9.24
		c1.78,11.14,11.07,19.83,22.31,20.84c14.83,1.33,27.26-10.29,27.26-24.84c0-5.27-1.64-10.15-4.42-14.18l35.54-44.73
		c3.96,2.39,8.58,3.78,13.52,3.78c7.79,0,14.82-3.44,19.64-8.88l39.96,28.18c-1.66,4.2-2.28,8.93-1.48,13.85
		c1.85,11.41,11.19,20.39,22.66,21.79c16.65,2.03,30.82-11.79,29.41-28.34c-1.05-12.25-10.7-22.29-22.9-23.78
		c-7.58-0.93-14.65,1.44-19.97,5.85l-41.65-29.38c0.39-1.79,0.6-3.65,0.6-5.55c0-15.44-13.5-27.87-29.27-26.08
		c-11.92,1.35-21.53,10.85-23.03,22.75c-0.75,5.97,0.55,11.62,3.28,16.35l-36.33,45.74c-3.19-1.48-6.73-2.3-10.48-2.3
		c-7.26,0-13.79,3.1-18.35,8.05l-62.59-31.21c0.13-1.02,0.2-2.05,0.2-3.1c0-14.44-11.81-26.26-26.91-26.26
		c-15.1,0-26.91,11.82-26.91,26.26C78.77,151.3,90.58,163.12,105.68,163.12z M363.84,149.65c8.45-1.71,16.05,3.71,16.22,12.52
		c0.11,5.87-3.69,11.27-9.33,12.88c-10.81,3.09-20.53-7.6-15.61-18.49C356.73,153.01,360.01,150.42,363.84,149.65z M280.34,94.44
		c9.21-1.78,17.23,6.25,15.45,15.46c-1,5.17-5.14,9.3-10.3,10.3c-9.21,1.78-17.23-6.25-15.45-15.46
		C271.03,99.58,275.17,95.44,280.34,94.44z M212.28,176.95c7.4-0.63,13.46,5.42,12.83,12.83c-0.48,5.63-5.08,10.23-10.71,10.71
		c-7.4,0.63-13.46-5.42-12.83-12.83C202.04,182.03,206.65,177.43,212.28,176.95z M108.06,123.91c4.88,0.72,10.01,5.16,11.07,9.98
		c1.88,8.5-4.52,16.1-13.46,16.1c-7.88,0-13.78-5.91-13.78-13.13C91.9,128.93,99.03,122.58,108.06,123.91z"/>
	<linearGradient id="SVGID_6_" gradientUnits="userSpaceOnUse" x1="28.2775" y1="238.3145" x2="398.6256" y2="238.3145">
		<stop  offset="0" style="stop-color:#3E66AF"/>
		<stop  offset="1" style="stop-color:#4BC5E4"/>
	</linearGradient>
	<path class="st5" d="M396.54,409.23H46.29l0-350.24c0-4.03-2.65-7.71-6.58-8.64C34.07,49.02,29,53.32,29,58.75v359.12
		c0,4.76,3.89,8.65,8.65,8.65h359.12c5.43,0,9.73-5.07,8.4-10.71C404.25,411.89,400.57,409.23,396.54,409.23z"/>
</g>
</svg>
