<?xml version="1.0" encoding="UTF-8"?>
<svg xmlns="http://www.w3.org/2000/svg" xmlns:xlink="http://www.w3.org/1999/xlink" id="Layer_1" data-name="Layer 1" width="0.89in" height="0.89in" viewBox="0 0 63.94 63.99">
  <defs>
    <style>
      .cls-1 {
        fill: url(#linear-gradient);
      }

      .cls-2 {
        fill: url(#linear-gradient-2);
      }

      .cls-3 {
        fill: url(#linear-gradient-3);
      }

      .cls-4 {
        fill: url(#linear-gradient-4);
      }

      .cls-5 {
        fill: url(#linear-gradient-5);
      }

      .cls-6 {
        fill: url(#linear-gradient-6);
      }
    </style>
    <linearGradient id="linear-gradient" x1="222.81" y1="-52.91" x2="285.77" y2="-52.91" gradientTransform="matrix(1, 0, 0, -1, -222.93, -7.69)" gradientUnits="userSpaceOnUse">
      <stop offset="0" stop-color="#1764e3"></stop>
      <stop offset="1" stop-color="#02d9f5"></stop>
    </linearGradient>
    <linearGradient id="linear-gradient-2" x1="222.81" y1="-55.2" x2="285.77" y2="-55.2" xlink:href="#linear-gradient"></linearGradient>
    <linearGradient id="linear-gradient-3" x1="222.81" y1="-50.02" x2="285.77" y2="-50.02" xlink:href="#linear-gradient"></linearGradient>
    <linearGradient id="linear-gradient-4" x1="222.81" y1="-53.5" x2="285.77" y2="-53.5" xlink:href="#linear-gradient"></linearGradient>
    <linearGradient id="linear-gradient-5" x1="222.81" y1="-24.13" x2="285.77" y2="-24.13" xlink:href="#linear-gradient"></linearGradient>
    <linearGradient id="linear-gradient-6" x1="222.81" y1="-39.68" x2="285.77" y2="-39.68" xlink:href="#linear-gradient"></linearGradient>
  </defs>
  <title>analytics-rgb</title>
  <g>
    <path class="cls-1" d="M16.7,32.27H9.15a.69.69,0,0,0-.69.69h0V57.47a.69.69,0,0,0,.69.69H16.7a.69.69,0,0,0,.69-.69h0V32.92A.68.68,0,0,0,16.7,32.27ZM14.47,55.92H11.38a.69.69,0,0,1-.69-.69h0v-20a.69.69,0,0,1,.69-.69h3.09a.69.69,0,0,1,.69.69h0v20a.69.69,0,0,1-.69.69Z" transform="translate(0 0)"></path>
    <path class="cls-2" d="M31.65,36.86H24.07a.69.69,0,0,0-.69.69h0V57.47a.69.69,0,0,0,.69.69h7.55a.69.69,0,0,0,.69-.69h0V37.55A.69.69,0,0,0,31.65,36.86ZM29.42,55.92H26.33a.69.69,0,0,1-.69-.69h0V39.77a.69.69,0,0,1,.69-.69h3.09a.69.69,0,0,1,.69.69h0V55.23a.69.69,0,0,1-.69.69Z" transform="translate(0 0)"></path>
    <path class="cls-3" d="M46.49,26.49H38.94a.69.69,0,0,0-.69.69h0V57.47a.69.69,0,0,0,.69.69h7.55a.69.69,0,0,0,.69-.69h0V27.18A.69.69,0,0,0,46.49,26.49ZM44.26,55.92H41.17a.69.69,0,0,1-.69-.69h0V29.4a.69.69,0,0,1,.69-.69h3.09a.69.69,0,0,1,.69.69h0V55.23a.69.69,0,0,1-.69.69Z" transform="translate(0 0)"></path>
    <path class="cls-4" d="M61.22,33.46H53.67a.69.69,0,0,0-.69.69h0V57.47a.69.69,0,0,0,.69.69h7.55a.69.69,0,0,0,.69-.69h0V34.15a.69.69,0,0,0-.69-.69ZM59,55.92H55.9a.69.69,0,0,1-.69-.69h0V36.37a.69.69,0,0,1,.69-.69H59a.69.69,0,0,1,.69.69h0V55.23a.69.69,0,0,1-.69.69Z" transform="translate(0 0)"></path>
    <path class="cls-5" d="M13.07,19.21a4.68,4.68,0,0,0,3.7-1.86l10.46,5.22a4.15,4.15,0,0,0,0,1.57,4.24,4.24,0,1,0,7.67-3.09l6-7.6a4.45,4.45,0,0,0,5.64-.87l6.79,4.79a4.39,4.39,0,0,0-.25,2.35,4.48,4.48,0,1,0,1.57-4.17l-7.08-5a4.23,4.23,0,0,0,.1-.94,4.47,4.47,0,0,0-8.9-.56,4.36,4.36,0,0,0,.56,2.78l-6.18,7.78a4.24,4.24,0,0,0-4.9,1L17.61,15.3a4.69,4.69,0,0,0,0-.53,4.57,4.57,0,1,0-4.69,4.45h.15Zm43.85-2.29a2.24,2.24,0,1,1-1.62,2.82,2.27,2.27,0,0,1,.14-1.64,2.07,2.07,0,0,1,1.48-1.18ZM42.73,7.54A2.23,2.23,0,1,1,41,10.16a2.12,2.12,0,0,1,0-.87A2.25,2.25,0,0,1,42.73,7.54Zm-11.57,14a2,2,0,1,1-1.82,2.17,2,2,0,0,1,0-.35,2,2,0,0,1,1.82-1.8Zm-17.72-9a2.42,2.42,0,0,1,1.88,1.7,2.33,2.33,0,0,1-4.62.65c0-.05,0-.09,0-.14A2.29,2.29,0,0,1,13,12.51a1.75,1.75,0,0,1,.4,0Z" transform="translate(0 0)"></path>
    <path class="cls-6" d="M62.48,61.05H2.94V1.51A1.49,1.49,0,0,0,1.82,0,1.48,1.48,0,0,0,0,1.12a1.34,1.34,0,0,0,0,.35V62.52A1.47,1.47,0,0,0,1.47,64h61a1.48,1.48,0,0,0,1.47-1.49,1.24,1.24,0,0,0,0-.33,1.49,1.49,0,0,0-1.47-1.12Z" transform="translate(0 0)"></path>
  </g>
</svg>