<!--?xml version="1.0" encoding="UTF-8"?-->
<svg xmlns="http://www.w3.org/2000/svg" xmlns:xlink="http://www.w3.org/1999/xlink" id="Layer_1" data-name="Layer 1" width="48.98" height="54" viewBox="0 0 48.98 54">
  <defs>
    <style>
      .cls-1 {
        fill: url(#linear-gradient);
      }

      .cls-2 {
        fill: url(#linear-gradient-2);
      }

      .cls-3 {
        fill: url(#linear-gradient-3);
      }

      .cls-4 {
        fill: url(#linear-gradient-4);
      }

      .cls-5 {
        fill: url(#linear-gradient-5);
      }

      .cls-6 {
        fill: url(#linear-gradient-6);
      }

      .cls-7 {
        fill: url(#linear-gradient-7);
      }

      .cls-8 {
        fill: url(#linear-gradient-8);
      }

      .cls-9 {
        fill: url(#linear-gradient-9);
      }
    </style>
    <linearGradient id="linear-gradient" x1="166.76" y1="454.13" x2="216.54" y2="454.13" gradientTransform="translate(-166.94 -443.72)" gradientUnits="userSpaceOnUse">
      <stop offset="0" stop-color="#1764e3"></stop>
      <stop offset="1" stop-color="#02d9f5"></stop>
    </linearGradient>
    <linearGradient id="linear-gradient-2" x1="166.76" y1="488.1" x2="216.54" y2="488.1" xlink:href="#linear-gradient"></linearGradient>
    <linearGradient id="linear-gradient-3" x1="166.76" y1="460.92" x2="216.54" y2="460.92" xlink:href="#linear-gradient"></linearGradient>
    <linearGradient id="linear-gradient-4" x1="166.76" y1="481.29" x2="216.54" y2="481.29" xlink:href="#linear-gradient"></linearGradient>
    <linearGradient id="linear-gradient-5" x1="166.76" y1="467.71" x2="216.54" y2="467.71" xlink:href="#linear-gradient"></linearGradient>
    <linearGradient id="linear-gradient-6" x1="166.76" y1="474.51" x2="216.54" y2="474.51" xlink:href="#linear-gradient"></linearGradient>
    <linearGradient id="linear-gradient-7" x1="166.76" y1="470.97" x2="216.54" y2="470.97" xlink:href="#linear-gradient"></linearGradient>
    <linearGradient id="linear-gradient-8" x1="166.76" y1="470.99" x2="216.54" y2="470.99" xlink:href="#linear-gradient"></linearGradient>
    <linearGradient id="linear-gradient-9" x1="166.76" y1="469.63" x2="216.54" y2="469.63" xlink:href="#linear-gradient"></linearGradient>
  </defs>
  <title>invoice-rgb-54px</title>
  <g>
    <path class="cls-1" d="M34.24,11.72v-.5a1.31,1.31,0,0,0-1.3-1.3H8.23a1.3,1.3,0,0,0-1.3,1.3v.5A1.3,1.3,0,0,0,8.23,13H32.94a1.3,1.3,0,0,0,1.3-1.3Z" transform="translate(-0.4 -0.01)"></path>
    <path class="cls-2" d="M6.93,45.26v.51a1.3,1.3,0,0,0,1.3,1.3H33a1.32,1.32,0,0,0,1.3-1.3v-.51A1.32,1.32,0,0,0,33,44H8.23A1.3,1.3,0,0,0,6.93,45.26Z" transform="translate(-0.4 -0.01)"></path>
    <path class="cls-3" d="M25.08,18.77v-1a1.07,1.07,0,0,0-1-1.05H8a1.06,1.06,0,0,0-1.09,1v1A1.08,1.08,0,0,0,8,19.84H24.05A1.09,1.09,0,0,0,25.08,18.77Z" transform="translate(-0.4 -0.01)"></path>
    <path class="cls-4" d="M24.05,37.12H8a1.05,1.05,0,0,0-1,1.06H7v1a1,1,0,0,0,1,1.09H24.05a1.06,1.06,0,0,0,1.06-1v-1a1.08,1.08,0,0,0-1.06-1.1Z" transform="translate(-0.4 -0.01)"></path>
    <path class="cls-5" d="M7.88,26.64H20a.92.92,0,0,0,.93-.93h0V24.46a.92.92,0,0,0-.93-.93H7.88a.92.92,0,0,0-.92.93v1.25a.91.91,0,0,0,.92.93Z" transform="translate(-0.4 -0.01)"></path>
    <path class="cls-6" d="M6.93,32.53a.94.94,0,0,0,.93.93H20a1,1,0,0,0,.93-.93V31.28a.93.93,0,0,0-.93-.93H7.88a.93.93,0,0,0-.92.93Z" transform="translate(-0.4 -0.01)"></path>
    <path class="cls-7" d="M36.71,15.68A12.67,12.67,0,1,0,49.38,28.35h0A12.67,12.67,0,0,0,36.71,15.68Zm0,23.72A11.08,11.08,0,1,1,47.77,28.31h0A11.09,11.09,0,0,1,36.71,39.4Z" transform="translate(-0.4 -0.01)"></path>
    <path class="cls-8" d="M38.22,27.31c-1.63-.63-2.53-1-2.53-1.91a1,1,0,0,1,.94-1h.08c.94,0,1,.89,1,1.18h2.88A3.31,3.31,0,0,0,38.08,22V20.14H35.55V22a3.73,3.73,0,0,0-3,3.74c0,2.53,2,3.28,3.52,3.84,1.37.52,1.69,1,1.69,1.69a1.08,1.08,0,0,1-1.07,1.09h0c-1,0-1.07-1.07-1.1-1.31H32.44v.2a4,4,0,0,0,.84,2.23,3.68,3.68,0,0,0,2.27,1.26V36.6h2.53v-2A3.93,3.93,0,0,0,41,30.88,3.77,3.77,0,0,0,38.22,27.31Z" transform="translate(-0.4 -0.01)"></path>
    <path class="cls-9" d="M38.94,50.43a1.77,1.77,0,0,1-1.76,1.76H3.92a1.77,1.77,0,0,1-1.76-1.76V3.49A1.78,1.78,0,0,1,3.92,1.72H37.18a1.78,1.78,0,0,1,1.76,1.77V14.94a15,15,0,0,1,1.76.41V3.53A3.53,3.53,0,0,0,37.18,0H3.92A3.51,3.51,0,0,0,.4,3.51h0v47A3.52,3.52,0,0,0,3.89,54H37.18a3.53,3.53,0,0,0,3.52-3.52v-9.2a13.25,13.25,0,0,1-1.76.42Z" transform="translate(-0.4 -0.01)"></path>
  </g>
</svg>
