<?xml version="1.0" encoding="UTF-8"?>
<svg xmlns="http://www.w3.org/2000/svg" xmlns:xlink="http://www.w3.org/1999/xlink" width="63pt" height="54pt" viewBox="0 0 63 54" version="1.1">
<defs>
<linearGradient id="linear0" gradientUnits="userSpaceOnUse" x1="84.0296" y1="110.629" x2="310.6133" y2="110.629" gradientTransform="matrix(0.175,0,0,0.15,0,0)">
<stop offset="0" style="stop-color:rgb(25.098039%,40.392157%,68.627451%);stop-opacity:1;"/>
<stop offset="1" style="stop-color:rgb(30.196078%,77.254902%,89.411765%);stop-opacity:1;"/>
</linearGradient>
<linearGradient id="linear1" gradientUnits="userSpaceOnUse" x1="84.0296" y1="265.2343" x2="310.6133" y2="265.2343" gradientTransform="matrix(0.175,0,0,0.15,0,0)">
<stop offset="0" style="stop-color:rgb(25.098039%,40.392157%,68.627451%);stop-opacity:1;"/>
<stop offset="1" style="stop-color:rgb(30.196078%,77.254902%,89.411765%);stop-opacity:1;"/>
</linearGradient>
<linearGradient id="linear2" gradientUnits="userSpaceOnUse" x1="84.0296" y1="141.5501" x2="310.6133" y2="141.5501" gradientTransform="matrix(0.175,0,0,0.15,0,0)">
<stop offset="0" style="stop-color:rgb(25.098039%,40.392157%,68.627451%);stop-opacity:1;"/>
<stop offset="1" style="stop-color:rgb(30.196078%,77.254902%,89.411765%);stop-opacity:1;"/>
</linearGradient>
<linearGradient id="linear3" gradientUnits="userSpaceOnUse" x1="84.0296" y1="234.3132" x2="310.6133" y2="234.3132" gradientTransform="matrix(0.175,0,0,0.15,0,0)">
<stop offset="0" style="stop-color:rgb(25.098039%,40.392157%,68.627451%);stop-opacity:1;"/>
<stop offset="1" style="stop-color:rgb(30.196078%,77.254902%,89.411765%);stop-opacity:1;"/>
</linearGradient>
<linearGradient id="linear4" gradientUnits="userSpaceOnUse" x1="84.0296" y1="172.4711" x2="310.6133" y2="172.4711" gradientTransform="matrix(0.175,0,0,0.15,0,0)">
<stop offset="0" style="stop-color:rgb(25.098039%,40.392157%,68.627451%);stop-opacity:1;"/>
<stop offset="1" style="stop-color:rgb(30.196078%,77.254902%,89.411765%);stop-opacity:1;"/>
</linearGradient>
<linearGradient id="linear5" gradientUnits="userSpaceOnUse" x1="84.0296" y1="203.3922" x2="310.6133" y2="203.3922" gradientTransform="matrix(0.175,0,0,0.15,0,0)">
<stop offset="0" style="stop-color:rgb(25.098039%,40.392157%,68.627451%);stop-opacity:1;"/>
<stop offset="1" style="stop-color:rgb(30.196078%,77.254902%,89.411765%);stop-opacity:1;"/>
</linearGradient>
<linearGradient id="linear6" gradientUnits="userSpaceOnUse" x1="84.0296" y1="187.1553" x2="310.6133" y2="187.1553" gradientTransform="matrix(0.175,0,0,0.15,0,0)">
<stop offset="0" style="stop-color:rgb(25.098039%,40.392157%,68.627451%);stop-opacity:1;"/>
<stop offset="1" style="stop-color:rgb(30.196078%,77.254902%,89.411765%);stop-opacity:1;"/>
</linearGradient>
<linearGradient id="linear7" gradientUnits="userSpaceOnUse" x1="84.0296" y1="187.1552" x2="310.6133" y2="187.1552" gradientTransform="matrix(0.175,0,0,0.15,0,0)">
<stop offset="0" style="stop-color:rgb(25.098039%,40.392157%,68.627451%);stop-opacity:1;"/>
<stop offset="1" style="stop-color:rgb(30.196078%,77.254902%,89.411765%);stop-opacity:1;"/>
</linearGradient>
<linearGradient id="linear8" gradientUnits="userSpaceOnUse" x1="84.0296" y1="180.9539" x2="310.6133" y2="180.9539" gradientTransform="matrix(0.175,0,0,0.15,0,0)">
<stop offset="0" style="stop-color:rgb(25.098039%,40.392157%,68.627451%);stop-opacity:1;"/>
<stop offset="1" style="stop-color:rgb(30.196078%,77.254902%,89.411765%);stop-opacity:1;"/>
</linearGradient>
</defs>
<g id="surface1">
<path style=" stroke:none;fill-rule:nonzero;fill:url(#linear0);" d="M 41.746094 16.765625 L 41.746094 16.421875 C 41.746094 15.9375 41.28125 15.535156 40.710938 15.535156 L 21.074219 15.535156 C 20.507812 15.535156 20.039062 15.933594 20.039062 16.421875 L 20.039062 16.765625 C 20.039062 17.253906 20.503906 17.652344 21.074219 17.652344 L 40.710938 17.652344 C 41.28125 17.652344 41.746094 17.253906 41.746094 16.765625 Z M 41.746094 16.765625 "/>
<path style=" stroke:none;fill-rule:nonzero;fill:url(#linear1);" d="M 20.042969 39.613281 L 20.042969 39.957031 C 20.042969 40.441406 20.507812 40.84375 21.074219 40.84375 L 40.714844 40.84375 C 41.28125 40.84375 41.746094 40.445312 41.746094 39.957031 L 41.746094 39.613281 C 41.746094 39.125 41.28125 38.726562 40.714844 38.726562 L 21.074219 38.726562 C 20.507812 38.726562 20.042969 39.125 20.042969 39.613281 Z M 20.042969 39.613281 "/>
<path style=" stroke:none;fill-rule:nonzero;fill:url(#linear2);" d="M 34.460938 21.570312 L 34.460938 20.894531 C 34.460938 20.5 34.082031 20.171875 33.617188 20.171875 L 20.882812 20.171875 C 20.421875 20.171875 20.039062 20.496094 20.039062 20.894531 L 20.039062 21.570312 C 20.039062 21.964844 20.417969 22.289062 20.882812 22.289062 L 33.617188 22.289062 C 34.082031 22.289062 34.460938 21.964844 34.460938 21.570312 Z M 34.460938 21.570312 "/>
<path style=" stroke:none;fill-rule:nonzero;fill:url(#linear3);" d="M 33.617188 34.089844 L 20.882812 34.089844 C 20.421875 34.089844 20.039062 34.414062 20.039062 34.808594 L 20.039062 35.484375 C 20.039062 35.878906 20.417969 36.207031 20.882812 36.207031 L 33.617188 36.207031 C 34.078125 36.207031 34.460938 35.882812 34.460938 35.484375 L 34.460938 34.808594 C 34.460938 34.414062 34.082031 34.089844 33.617188 34.089844 Z M 33.617188 34.089844 "/>
<path style=" stroke:none;fill-rule:nonzero;fill:url(#linear4);" d="M 20.78125 26.929688 L 30.398438 26.929688 C 30.804688 26.929688 31.136719 26.644531 31.136719 26.296875 L 31.136719 25.445312 C 31.136719 25.097656 30.804688 24.8125 30.398438 24.8125 L 20.78125 24.8125 C 20.375 24.8125 20.039062 25.097656 20.039062 25.445312 L 20.039062 26.296875 C 20.042969 26.644531 20.375 26.929688 20.78125 26.929688 Z M 20.78125 26.929688 "/>
<path style=" stroke:none;fill-rule:nonzero;fill:url(#linear5);" d="M 20.042969 30.933594 C 20.042969 31.28125 20.375 31.566406 20.78125 31.566406 L 30.398438 31.566406 C 30.804688 31.566406 31.136719 31.28125 31.136719 30.933594 L 31.136719 30.085938 C 31.136719 29.734375 30.804688 29.449219 30.398438 29.449219 L 20.78125 29.449219 C 20.375 29.449219 20.042969 29.734375 20.042969 30.085938 Z M 20.042969 30.933594 "/>
<path style=" stroke:none;fill-rule:nonzero;fill:url(#linear6);" d="M 43.699219 19.464844 C 38.160156 19.464844 33.652344 23.328125 33.652344 28.074219 C 33.652344 32.820312 38.160156 36.683594 43.699219 36.683594 C 49.234375 36.683594 53.742188 32.820312 53.742188 28.074219 C 53.742188 23.328125 49.234375 19.464844 43.699219 19.464844 Z M 43.699219 35.621094 C 38.84375 35.621094 34.890625 32.234375 34.890625 28.074219 C 34.890625 23.910156 38.839844 20.523438 43.699219 20.523438 C 48.554688 20.523438 52.503906 23.910156 52.503906 28.074219 C 52.503906 32.234375 48.550781 35.621094 43.699219 35.621094 Z M 43.699219 35.621094 "/>
<path style=" stroke:none;fill-rule:nonzero;fill:url(#linear7);" d="M 44.90625 27.359375 C 43.609375 26.929688 42.914062 26.703125 42.914062 26.054688 C 42.914062 25.691406 43.210938 25.347656 43.710938 25.347656 C 44.449219 25.347656 44.507812 25.957031 44.523438 26.144531 L 46.8125 26.144531 C 46.839844 24.816406 45.941406 23.984375 44.757812 23.742188 L 44.757812 22.464844 L 42.769531 22.464844 L 42.769531 23.742188 C 41.648438 24.007812 40.40625 24.742188 40.40625 26.296875 C 40.40625 28.039062 41.984375 28.535156 43.195312 28.914062 C 44.289062 29.269531 44.550781 29.609375 44.550781 30.039062 C 44.550781 30.53125 44.078125 30.785156 43.710938 30.785156 C 42.945312 30.785156 42.855469 30.050781 42.839844 29.886719 L 40.320312 29.886719 L 40.320312 30.027344 C 40.320312 30.546875 40.601562 31.140625 40.96875 31.546875 C 41.558594 32.175781 42.3125 32.316406 42.769531 32.40625 L 42.769531 33.679688 L 44.757812 33.679688 L 44.757812 32.351562 C 47.046875 31.707031 47.074219 30 47.074219 29.785156 C 47.074219 29.128906 46.734375 27.953125 44.90625 27.359375 Z M 44.90625 27.359375 "/>
<path style=" stroke:none;fill-rule:nonzero;fill:url(#linear8);" d="M 45.476562 43.132812 C 45.476562 43.792969 44.847656 44.332031 44.078125 44.332031 L 17.652344 44.332031 C 16.878906 44.332031 16.253906 43.792969 16.253906 43.132812 L 16.253906 11.15625 C 16.253906 10.492188 16.878906 9.957031 17.652344 9.957031 L 44.078125 9.957031 C 44.847656 9.957031 45.476562 10.492188 45.476562 11.15625 L 45.476562 18.957031 C 45.953125 19.023438 46.421875 19.117188 46.878906 19.238281 L 46.878906 11.15625 C 46.878906 9.832031 45.621094 8.753906 44.078125 8.753906 L 17.652344 8.753906 C 16.109375 8.753906 14.851562 9.832031 14.851562 11.15625 L 14.851562 43.132812 C 14.851562 44.453125 16.109375 45.53125 17.652344 45.53125 L 44.078125 45.53125 C 45.621094 45.53125 46.878906 44.453125 46.878906 43.132812 L 46.878906 36.910156 C 46.421875 37.027344 45.953125 37.121094 45.476562 37.191406 Z M 45.476562 43.132812 "/>
</g>
</svg>
