<?xml version="1.0" encoding="utf-8"?>
<!-- Generator: Adobe Illustrator 24.0.2, SVG Export Plug-In . SVG Version: 6.00 Build 0)  -->
<svg version="1.1" id="Layer_1" xmlns="http://www.w3.org/2000/svg" xmlns:xlink="http://www.w3.org/1999/xlink" x="0px" y="0px"
	 viewBox="0 0 360 360" style="enable-background:new 0 0 360 360;" xml:space="preserve">
<style type="text/css">
	.st0{fill:url(#SVGID_1_);}
	.st1{fill:url(#SVGID_2_);}
	.st2{fill:url(#SVGID_3_);}
	.st3{fill:url(#SVGID_4_);}
	.st4{fill:url(#SVGID_5_);}
	.st5{fill:url(#SVGID_6_);}
	.st6{fill:url(#SVGID_7_);}
	.st7{fill:url(#SVGID_8_);}
	.st8{fill:url(#SVGID_9_);}
</style>
<g>
	<linearGradient id="SVGID_1_" gradientUnits="userSpaceOnUse" x1="84.0296" y1="110.629" x2="310.6133" y2="110.629">
		<stop  offset="0" style="stop-color:#4067AF"/>
		<stop  offset="1" style="stop-color:#4DC5E4"/>
	</linearGradient>
	<path class="st0" d="M238.54,111.78v-2.3c0-3.24-2.65-5.9-5.9-5.9H120.42c-3.24,0-5.9,2.65-5.9,5.9v2.3c0,3.24,2.65,5.9,5.9,5.9
		h112.22C235.89,117.68,238.54,115.03,238.54,111.78z"/>
	<linearGradient id="SVGID_2_" gradientUnits="userSpaceOnUse" x1="84.0296" y1="265.2343" x2="310.6133" y2="265.2343">
		<stop  offset="0" style="stop-color:#4067AF"/>
		<stop  offset="1" style="stop-color:#4DC5E4"/>
	</linearGradient>
	<path class="st1" d="M114.53,264.08v2.3c0,3.24,2.65,5.9,5.9,5.9h112.22c3.24,0,5.9-2.65,5.9-5.9v-2.3c0-3.24-2.65-5.9-5.9-5.9
		H120.42C117.18,258.18,114.53,260.84,114.53,264.08z"/>
	<linearGradient id="SVGID_3_" gradientUnits="userSpaceOnUse" x1="84.0296" y1="141.5501" x2="310.6133" y2="141.5501">
		<stop  offset="0" style="stop-color:#4067AF"/>
		<stop  offset="1" style="stop-color:#4DC5E4"/>
	</linearGradient>
	<path class="st2" d="M196.91,143.79v-4.49c0-2.64-2.16-4.81-4.81-4.81h-72.77c-2.64,0-4.81,2.16-4.81,4.81v4.49
		c0,2.64,2.16,4.81,4.81,4.81h72.77C194.75,148.6,196.91,146.44,196.91,143.79z"/>
	<linearGradient id="SVGID_4_" gradientUnits="userSpaceOnUse" x1="84.0296" y1="234.3132" x2="310.6133" y2="234.3132">
		<stop  offset="0" style="stop-color:#4067AF"/>
		<stop  offset="1" style="stop-color:#4DC5E4"/>
	</linearGradient>
	<path class="st3" d="M192.1,227.26h-72.77c-2.64,0-4.81,2.16-4.81,4.81v4.49c0,2.64,2.16,4.81,4.81,4.81h72.77
		c2.64,0,4.81-2.16,4.81-4.81v-4.49C196.91,229.43,194.75,227.26,192.1,227.26z"/>
	<linearGradient id="SVGID_5_" gradientUnits="userSpaceOnUse" x1="84.0296" y1="172.4711" x2="310.6133" y2="172.4711">
		<stop  offset="0" style="stop-color:#4067AF"/>
		<stop  offset="1" style="stop-color:#4DC5E4"/>
	</linearGradient>
	<path class="st4" d="M118.74,179.52h54.96c2.32,0,4.22-1.9,4.22-4.22v-5.67c0-2.32-1.9-4.22-4.22-4.22h-54.96
		c-2.32,0-4.22,1.9-4.22,4.22v5.67C114.53,177.62,116.42,179.52,118.74,179.52z"/>
	<linearGradient id="SVGID_6_" gradientUnits="userSpaceOnUse" x1="84.0296" y1="203.3922" x2="310.6133" y2="203.3922">
		<stop  offset="0" style="stop-color:#4067AF"/>
		<stop  offset="1" style="stop-color:#4DC5E4"/>
	</linearGradient>
	<path class="st5" d="M114.53,206.23c0,2.32,1.9,4.22,4.22,4.22h54.96c2.32,0,4.22-1.9,4.22-4.22v-5.67c0-2.32-1.9-4.22-4.22-4.22
		h-54.96c-2.32,0-4.22,1.9-4.22,4.22V206.23z"/>
	<linearGradient id="SVGID_7_" gradientUnits="userSpaceOnUse" x1="84.0296" y1="187.1553" x2="310.6133" y2="187.1553">
		<stop  offset="0" style="stop-color:#4067AF"/>
		<stop  offset="1" style="stop-color:#4DC5E4"/>
	</linearGradient>
	<path class="st6" d="M249.7,129.76c-31.65,0-57.4,25.75-57.4,57.4c0,31.65,25.75,57.4,57.4,57.4s57.4-25.75,57.4-57.4
		C307.09,155.51,281.34,129.76,249.7,129.76z M249.7,237.47c-27.74,0-50.32-22.57-50.32-50.32s22.57-50.32,50.32-50.32
		s50.32,22.57,50.32,50.32S277.44,237.47,249.7,237.47z"/>
	<linearGradient id="SVGID_8_" gradientUnits="userSpaceOnUse" x1="84.0296" y1="187.1552" x2="310.6133" y2="187.1552">
		<stop  offset="0" style="stop-color:#4067AF"/>
		<stop  offset="1" style="stop-color:#4DC5E4"/>
	</linearGradient>
	<path class="st7" d="M256.61,182.39c-7.42-2.87-11.38-4.38-11.38-8.68c0-2.44,1.69-4.72,4.55-4.72c4.22,0,4.55,4.05,4.64,5.31
		h13.07c0.17-8.85-4.97-14.41-11.72-16.02v-8.51h-11.38v8.51c-6.41,1.77-13.49,6.66-13.49,17.03c0,11.63,9.02,14.92,15.93,17.45
		c6.24,2.36,7.75,4.64,7.75,7.5c0,3.29-2.7,4.97-4.8,4.97c-4.38,0-4.89-4.89-4.97-5.98h-14.41v0.93c0,3.46,1.6,7.42,3.71,10.12
		c3.37,4.21,7.67,5.14,10.28,5.73v8.51h11.38v-8.85c13.07-4.3,13.23-15.68,13.23-17.11C269,194.19,267.06,186.35,256.61,182.39z"/>
	<linearGradient id="SVGID_9_" gradientUnits="userSpaceOnUse" x1="84.0296" y1="180.9539" x2="310.6133" y2="180.9539">
		<stop  offset="0" style="stop-color:#4067AF"/>
		<stop  offset="1" style="stop-color:#4DC5E4"/>
	</linearGradient>
	<path class="st8" d="M259.87,287.54c0,4.41-3.59,8-8,8h-151c-4.41,0-8-3.59-8-8V74.37c0-4.41,3.59-8,8-8h151c4.41,0,8,3.59,8,8
		v52.01c2.73,0.45,5.4,1.08,8,1.88V74.37c0-8.82-7.18-16-16-16h-151c-8.82,0-16,7.18-16,16v213.17c0,8.82,7.18,16,16,16h151
		c8.82,0,16-7.18,16-16v-41.48c-2.6,0.8-5.27,1.42-8,1.88V287.54z"/>
</g>
</svg>
